<svg width="207" height="12" viewBox="0 0 207 12" fill="none" xmlns="http://www.w3.org/2000/svg">
<path d="M5.82 6.62C6.564 6.296 7.032 5.648 7.032 4.832C7.032 3.308 5.352 2.42 3.408 2.42C2.448 2.42 1.44 2.636 0.528 3.104L1.116 4.616C1.836 4.208 2.664 4.016 3.372 4.016C4.32 4.016 5.064 4.376 5.064 5.06C5.064 5.612 4.608 5.96 3.816 5.96H1.908V7.424H3.96C4.836 7.424 5.412 7.736 5.412 8.372C5.412 9.152 4.512 9.56 3.408 9.56C2.592 9.56 1.656 9.344 0.888 8.876L0.288 10.268C1.332 10.868 2.52 11.144 3.636 11.144C5.652 11.144 7.38 10.232 7.38 8.648C7.38 7.7 6.792 6.956 5.82 6.62ZM15.351 11H17.391L13.635 2.6H11.715L7.971 11H9.963L10.707 9.2H14.607L15.351 11ZM11.331 7.724L12.663 4.508L13.995 7.724H11.331ZM23.9409 11H26.1489L23.3169 6.656L26.0649 2.6H24.0129L21.8049 5.996H20.4129V2.6H18.4809V11H20.4129V7.616H21.7569L23.9409 11ZM33.3276 11H35.3676L31.6116 2.6H29.6916L25.9476 11H27.9396L28.6836 9.2H32.5836L33.3276 11ZM29.3076 7.724L30.6396 4.508L31.9716 7.724H29.3076ZM41.2575 6.62C42.0015 6.296 42.4695 5.648 42.4695 4.832C42.4695 3.308 40.7895 2.42 38.8455 2.42C37.8855 2.42 36.8775 2.636 35.9655 3.104L36.5535 4.616C37.2735 4.208 38.1015 4.016 38.8095 4.016C39.7575 4.016 40.5015 4.376 40.5015 5.06C40.5015 5.612 40.0455 5.96 39.2535 5.96H37.3455V7.424H39.3975C40.2735 7.424 40.8495 7.736 40.8495 8.372C40.8495 9.152 39.9495 9.56 38.8455 9.56C38.0295 9.56 37.0935 9.344 36.3255 8.876L35.7255 10.268C36.7695 10.868 37.9575 11.144 39.0735 11.144C41.0895 11.144 42.8175 10.232 42.8175 8.648C42.8175 7.7 42.2295 6.956 41.2575 6.62ZM50.7885 11H52.8285L49.0725 2.6H47.1525L43.4085 11H45.4005L46.1445 9.2H50.0445L50.7885 11ZM46.7685 7.724L48.1005 4.508L49.4325 7.724H46.7685ZM59.9406 2.6H52.6566V4.184H55.3326V11H57.2526V4.184H59.9406V2.6ZM65.2292 5.36H63.0932V2.6H61.1612V11H64.9532C67.1132 11 68.4092 10.004 68.4092 8.072C68.4092 6.26 67.2572 5.36 65.2292 5.36ZM64.8452 9.56H63.0932V6.8H64.8452C65.8532 6.8 66.4532 7.184 66.4532 8.108C66.4532 9.056 65.8412 9.56 64.8452 9.56ZM77.2161 11.144C79.8561 11.144 81.8121 9.308 81.8121 6.8C81.8121 4.292 79.8561 2.456 77.2161 2.456C74.5641 2.456 72.6201 4.304 72.6201 6.8C72.6201 9.296 74.5641 11.144 77.2161 11.144ZM77.2161 9.488C75.7161 9.488 74.5881 8.396 74.5881 6.8C74.5881 5.204 75.7161 4.112 77.2161 4.112C78.7161 4.112 79.8441 5.204 79.8441 6.8C79.8441 8.396 78.7161 9.488 77.2161 9.488ZM83.3096 11H87.2936C89.4536 11 90.6896 10.028 90.6896 8.348C90.6896 6.74 89.5976 5.876 87.5696 5.876H85.2416V4.148H90.0896V2.6H83.3096V11ZM85.2416 9.56V7.304H87.1856C88.2056 7.304 88.7216 7.664 88.7216 8.408C88.7216 9.164 88.1816 9.56 87.1856 9.56H85.2416ZM95.805 2.6H92.169V11H94.113V8.684H95.805C98.049 8.684 99.453 7.52 99.453 5.648C99.453 3.764 98.049 2.6 95.805 2.6ZM95.697 7.1H94.113V4.184H95.697C96.885 4.184 97.485 4.724 97.485 5.648C97.485 6.56 96.885 7.1 95.697 7.1ZM106.746 11H108.786L105.03 2.6H103.11L99.3655 11H101.358L102.102 9.2H106.002L106.746 11ZM102.726 7.724L104.058 4.508L105.39 7.724H102.726ZM115.898 2.6H108.614V4.184H111.29V11H113.21V4.184H115.898V2.6ZM122.878 2.6V5.912H119.062V2.6H117.118V11H119.062V7.556H122.878V11H124.822V2.6H122.878ZM130.995 5.36H128.859V2.6H126.927V11H130.719C132.879 11 134.175 10.004 134.175 8.072C134.175 6.26 133.023 5.36 130.995 5.36ZM135.243 11H137.175V2.6H135.243V11ZM130.611 9.56H128.859V6.8H130.611C131.619 6.8 132.219 7.184 132.219 8.108C132.219 9.056 131.607 9.56 130.611 9.56ZM143.143 2.06C144.715 2.06 145.459 1.4 145.471 0.223999H144.139C144.127 0.8 143.779 1.1 143.143 1.1C142.483 1.1 142.159 0.8 142.147 0.223999H140.815C140.827 1.4 141.547 2.06 143.143 2.06ZM139.267 11H141.103L145.111 5.54V11H147.031V2.6H145.207L141.199 8.072V2.6H139.267V11ZM157.297 6.62C158.041 6.296 158.509 5.648 158.509 4.832C158.509 3.308 156.829 2.42 154.885 2.42C153.925 2.42 152.917 2.636 152.005 3.104L152.593 4.616C153.313 4.208 154.141 4.016 154.849 4.016C155.797 4.016 156.541 4.376 156.541 5.06C156.541 5.612 156.085 5.96 155.293 5.96H153.385V7.424H155.437C156.313 7.424 156.889 7.736 156.889 8.372C156.889 9.152 155.989 9.56 154.885 9.56C154.069 9.56 153.133 9.344 152.365 8.876L151.765 10.268C152.809 10.868 153.997 11.144 155.113 11.144C157.129 11.144 158.857 10.232 158.857 8.648C158.857 7.7 158.269 6.956 157.297 6.62ZM166.216 6.62C166.96 6.26 167.404 5.624 167.404 4.772C167.404 3.38 166.252 2.6 164.308 2.6H160.396V11H164.536C166.66 11 167.8 10.1 167.8 8.636C167.8 7.616 167.236 6.92 166.216 6.62ZM162.328 4.04H164.14C164.98 4.04 165.424 4.4 165.424 5.06C165.424 5.732 164.98 6.08 164.14 6.08H162.328V4.04ZM164.464 9.56H162.328V7.436H164.464C165.364 7.436 165.832 7.772 165.832 8.48C165.832 9.212 165.364 9.56 164.464 9.56ZM173.345 11.144C175.985 11.144 177.941 9.308 177.941 6.8C177.941 4.292 175.985 2.456 173.345 2.456C170.693 2.456 168.749 4.304 168.749 6.8C168.749 9.296 170.693 11.144 173.345 11.144ZM173.345 9.488C171.845 9.488 170.717 8.396 170.717 6.8C170.717 5.204 171.845 4.112 173.345 4.112C174.845 4.112 175.973 5.204 175.973 6.8C175.973 8.396 174.845 9.488 173.345 9.488ZM185.199 2.6V5.912H181.383V2.6H179.439V11H181.383V7.556H185.199V11H187.143V2.6H185.199ZM193.255 11.144C195.895 11.144 197.851 9.308 197.851 6.8C197.851 4.292 195.895 2.456 193.255 2.456C190.603 2.456 188.659 4.304 188.659 6.8C188.659 9.296 190.603 11.144 193.255 11.144ZM193.255 9.488C191.755 9.488 190.627 8.396 190.627 6.8C190.627 5.204 191.755 4.112 193.255 4.112C194.755 4.112 195.883 5.204 195.883 6.8C195.883 8.396 194.755 9.488 193.255 9.488ZM204.785 11H206.993L204.161 6.656L206.909 2.6H204.857L202.649 5.996H201.257V2.6H199.325V11H201.257V7.616H202.601L204.785 11Z" fill="white"/>
</svg>
