<svg width="40" height="40" viewBox="0 0 40 40" fill="none" xmlns="http://www.w3.org/2000/svg">
<rect x="0.5" y="0.5" width="39" height="39" stroke="white"/>
<path fill-rule="evenodd" clip-rule="evenodd" d="M27.7237 26.9002H27.542C26.3025 26.7071 25.5359 25.8782 24.8158 25.1057C24.403 24.6714 23.7385 23.5532 22.9983 23.67C21.9456 23.8341 22.5328 25.6207 22.0895 26.3619C21.738 26.9541 20.2191 26.8285 19.1815 26.7208C15.8919 26.3874 14.1075 24.7615 12.6386 22.9522C11.061 21.0218 9.92523 18.905 8.82183 16.6713C8.45833 15.9393 7.91309 15.2267 7.91309 14.3384C8.44797 13.9242 9.39598 13.9794 10.2758 13.9794C11.0159 13.9794 12.0933 13.8951 12.6386 14.1589C12.9615 14.3179 13.2858 15.2389 13.5473 15.774C14.0577 16.8435 14.666 17.8647 15.3648 18.8247C15.6825 19.2554 16.2534 20.012 16.8188 19.9015C17.3744 19.7956 17.3402 18.5801 17.364 17.748C17.3929 16.8017 17.4678 15.5605 17.1823 15.0562C16.9173 14.5835 16.4024 14.6212 15.9101 14.3384C16.3179 13.5488 17.4549 13.4411 18.818 13.4411C19.9609 13.4411 21.4563 13.2616 21.9078 13.9794C22.3562 14.7197 22.1235 16.2164 22.0895 17.2096C22.0555 18.3251 21.8331 19.3841 22.6348 19.9015C23.2549 19.838 23.5506 19.2734 23.907 18.8247C24.6967 17.8395 25.2967 17.0392 25.9063 15.774C26.1542 15.2459 26.3634 14.3263 26.815 14.1589C27.5046 13.9134 28.5327 13.9794 29.5412 13.9794C30.3735 13.9794 31.8218 13.7943 32.0857 14.3384C32.2997 14.7728 31.7404 15.9983 31.5405 16.3124C30.7731 17.5072 30.0029 18.3242 29.1777 19.3631C28.8448 19.783 28.2247 20.3164 28.269 20.9782C28.2981 21.4889 28.7684 21.8766 29.1777 22.2344C29.9712 22.9488 30.7009 23.7293 31.3587 24.5673C31.6285 24.8972 32.3271 25.5751 32.2675 26.003C32.0994 27.3392 27.7259 26.8875 27.7237 26.9002Z" fill="white"/>
</svg>
